<mxfile host="app.diagrams.net" modified="2023-12-27T14:31:33.305Z" agent="Mozilla/5.0 (X11; Ubuntu; Linux x86_64; rv:109.0) Gecko/20100101 Firefox/119.0" etag="ZuJJpw9L0I92tOJldvtg" version="22.1.12" type="device">
  <diagram name="Page-1" id="ijYUL2DRCu7JyTvv11dG">
    <mxGraphModel dx="683" dy="365" grid="1" gridSize="10" guides="1" tooltips="1" connect="1" arrows="1" fold="1" page="1" pageScale="1" pageWidth="827" pageHeight="1169" math="0" shadow="0">
      <root>
        <mxCell id="0" />
        <mxCell id="1" parent="0" />
        <mxCell id="Ic_sNFWS0UqWw6-ykYM1-8" value="Arr - Arrow function" style="swimlane;whiteSpace=wrap;html=1;" vertex="1" parent="1">
          <mxGeometry x="160" y="140" width="560" height="240" as="geometry">
            <mxRectangle x="200" y="140" width="140" height="30" as="alternateBounds" />
          </mxGeometry>
        </mxCell>
        <mxCell id="Ic_sNFWS0UqWw6-ykYM1-1" value="&lt;b&gt;&lt;i&gt;&lt;font style=&quot;font-size: 20px;&quot;&gt;f&lt;/font&gt;&lt;/i&gt;&lt;/b&gt;" style="rounded=0;whiteSpace=wrap;html=1;" vertex="1" parent="Ic_sNFWS0UqWw6-ykYM1-8">
          <mxGeometry x="200" y="70" width="160" height="60" as="geometry" />
        </mxCell>
        <mxCell id="Ic_sNFWS0UqWw6-ykYM1-4" value="&lt;div&gt;&lt;i&gt;Re &lt;br&gt;&lt;/i&gt;&lt;/div&gt;&lt;div&gt;&lt;i&gt;V&lt;/i&gt;&lt;br&gt;&lt;/div&gt;" style="text;html=1;strokeColor=none;fillColor=none;align=center;verticalAlign=middle;whiteSpace=wrap;rounded=0;" vertex="1" parent="Ic_sNFWS0UqWw6-ykYM1-8">
          <mxGeometry x="120" y="100" width="60" height="30" as="geometry" />
        </mxCell>
        <mxCell id="Ic_sNFWS0UqWw6-ykYM1-3" value="&lt;i&gt;&lt;b&gt;sv&lt;/b&gt;&lt;/i&gt;" style="text;html=1;strokeColor=none;fillColor=none;align=center;verticalAlign=middle;whiteSpace=wrap;rounded=0;" vertex="1" parent="Ic_sNFWS0UqWw6-ykYM1-8">
          <mxGeometry x="120" y="70" width="60" height="30" as="geometry" />
        </mxCell>
        <mxCell id="Ic_sNFWS0UqWw6-ykYM1-5" value="" style="endArrow=classic;html=1;rounded=0;exitX=1;exitY=0.5;exitDx=0;exitDy=0;" edge="1" parent="Ic_sNFWS0UqWw6-ykYM1-8" source="Ic_sNFWS0UqWw6-ykYM1-1">
          <mxGeometry width="50" height="50" relative="1" as="geometry">
            <mxPoint x="370" y="100" as="sourcePoint" />
            <mxPoint x="480" y="100" as="targetPoint" />
          </mxGeometry>
        </mxCell>
        <mxCell id="Ic_sNFWS0UqWw6-ykYM1-7" value="&lt;div&gt;&lt;i&gt;Re &lt;br&gt;&lt;/i&gt;&lt;/div&gt;&lt;div&gt;&lt;i&gt;V&lt;/i&gt;&lt;br&gt;&lt;/div&gt;" style="text;html=1;strokeColor=none;fillColor=none;align=center;verticalAlign=middle;whiteSpace=wrap;rounded=0;" vertex="1" parent="Ic_sNFWS0UqWw6-ykYM1-8">
          <mxGeometry x="380" y="100" width="60" height="30" as="geometry" />
        </mxCell>
        <mxCell id="Ic_sNFWS0UqWw6-ykYM1-6" value="&lt;i&gt;&lt;b&gt;f&lt;/b&gt;&lt;/i&gt; &lt;i&gt;&lt;b&gt;sv&lt;/b&gt;&lt;/i&gt;" style="text;html=1;strokeColor=none;fillColor=none;align=center;verticalAlign=middle;whiteSpace=wrap;rounded=0;" vertex="1" parent="Ic_sNFWS0UqWw6-ykYM1-8">
          <mxGeometry x="380" y="70" width="60" height="30" as="geometry" />
        </mxCell>
        <mxCell id="Ic_sNFWS0UqWw6-ykYM1-2" value="" style="endArrow=classic;html=1;rounded=0;entryX=0;entryY=0.5;entryDx=0;entryDy=0;" edge="1" parent="Ic_sNFWS0UqWw6-ykYM1-8">
          <mxGeometry width="50" height="50" relative="1" as="geometry">
            <mxPoint x="80" y="100" as="sourcePoint" />
            <mxPoint x="200" y="100" as="targetPoint" />
          </mxGeometry>
        </mxCell>
        <mxCell id="Ic_sNFWS0UqWw6-ykYM1-45" value="&lt;h1&gt;Typing&lt;/h1&gt;&lt;p&gt;&amp;nbsp;Re |-- sv : a&amp;nbsp;&amp;nbsp;&amp;nbsp;&amp;nbsp;&amp;nbsp;&amp;nbsp;&amp;nbsp;&amp;nbsp;&amp;nbsp;&amp;nbsp;&amp;nbsp; Re |-- f : a --&amp;gt; b&amp;nbsp;&amp;nbsp;&amp;nbsp;&amp;nbsp;&amp;nbsp;&amp;nbsp;&amp;nbsp; Re |-- f sv : b&lt;br&gt;&lt;/p&gt;&amp;nbsp;&amp;nbsp; " style="text;html=1;strokeColor=none;fillColor=none;spacing=5;spacingTop=-20;whiteSpace=wrap;overflow=hidden;rounded=0;" vertex="1" parent="Ic_sNFWS0UqWw6-ykYM1-8">
          <mxGeometry x="135" y="160" width="290" height="80" as="geometry" />
        </mxCell>
        <mxCell id="Ic_sNFWS0UqWw6-ykYM1-9" value="First - Arrow function" style="swimlane;whiteSpace=wrap;html=1;" vertex="1" parent="1">
          <mxGeometry x="160" y="400" width="560" height="380" as="geometry">
            <mxRectangle x="160" y="360" width="140" height="30" as="alternateBounds" />
          </mxGeometry>
        </mxCell>
        <mxCell id="Ic_sNFWS0UqWw6-ykYM1-10" value="" style="rounded=0;whiteSpace=wrap;html=1;" vertex="1" parent="Ic_sNFWS0UqWw6-ykYM1-9">
          <mxGeometry x="160" y="80" width="240" height="160" as="geometry" />
        </mxCell>
        <mxCell id="Ic_sNFWS0UqWw6-ykYM1-11" value="&lt;div&gt;&lt;i&gt;Re &lt;br&gt;&lt;/i&gt;&lt;/div&gt;&lt;div&gt;&lt;i&gt;V&lt;/i&gt;&lt;br&gt;&lt;/div&gt;" style="text;html=1;strokeColor=none;fillColor=none;align=center;verticalAlign=middle;whiteSpace=wrap;rounded=0;" vertex="1" parent="Ic_sNFWS0UqWw6-ykYM1-9">
          <mxGeometry x="90" y="160" width="60" height="30" as="geometry" />
        </mxCell>
        <mxCell id="Ic_sNFWS0UqWw6-ykYM1-12" value="&lt;i&gt;&lt;b&gt;(sv1,sv2)&lt;/b&gt;&lt;/i&gt;" style="text;html=1;strokeColor=none;fillColor=none;align=center;verticalAlign=middle;whiteSpace=wrap;rounded=0;" vertex="1" parent="Ic_sNFWS0UqWw6-ykYM1-9">
          <mxGeometry x="90" y="130" width="60" height="30" as="geometry" />
        </mxCell>
        <mxCell id="Ic_sNFWS0UqWw6-ykYM1-14" value="&lt;div&gt;&lt;i&gt;Re&#39; &lt;br&gt;&lt;/i&gt;&lt;/div&gt;&lt;div&gt;&lt;i&gt;V&lt;/i&gt; &#39;&lt;br&gt;&lt;/div&gt;" style="text;html=1;strokeColor=none;fillColor=none;align=center;verticalAlign=middle;whiteSpace=wrap;rounded=0;" vertex="1" parent="Ic_sNFWS0UqWw6-ykYM1-9">
          <mxGeometry x="420" y="160" width="60" height="30" as="geometry" />
        </mxCell>
        <mxCell id="Ic_sNFWS0UqWw6-ykYM1-17" value="&lt;font style=&quot;font-size: 21px;&quot;&gt;&lt;i&gt;&lt;b&gt;sf&lt;/b&gt;&lt;/i&gt;&lt;/font&gt;" style="rounded=0;whiteSpace=wrap;html=1;" vertex="1" parent="Ic_sNFWS0UqWw6-ykYM1-9">
          <mxGeometry x="240" y="100" width="80" height="40" as="geometry" />
        </mxCell>
        <mxCell id="Ic_sNFWS0UqWw6-ykYM1-19" value="&lt;i&gt;&lt;b&gt;sv1&lt;/b&gt;&lt;/i&gt;" style="text;html=1;strokeColor=none;fillColor=none;align=center;verticalAlign=middle;whiteSpace=wrap;rounded=0;" vertex="1" parent="Ic_sNFWS0UqWw6-ykYM1-9">
          <mxGeometry x="180" y="90" width="60" height="30" as="geometry" />
        </mxCell>
        <mxCell id="Ic_sNFWS0UqWw6-ykYM1-20" value="&lt;div&gt;&lt;i&gt;Re &lt;br&gt;&lt;/i&gt;&lt;/div&gt;&lt;div&gt;&lt;i&gt;V&lt;/i&gt;&lt;br&gt;&lt;/div&gt;" style="text;html=1;strokeColor=none;fillColor=none;align=center;verticalAlign=middle;whiteSpace=wrap;rounded=0;" vertex="1" parent="Ic_sNFWS0UqWw6-ykYM1-9">
          <mxGeometry x="180" y="120" width="60" height="30" as="geometry" />
        </mxCell>
        <mxCell id="Ic_sNFWS0UqWw6-ykYM1-21" value="" style="curved=1;endArrow=classic;html=1;rounded=0;exitX=0;exitY=0.5;exitDx=0;exitDy=0;" edge="1" parent="Ic_sNFWS0UqWw6-ykYM1-9" source="Ic_sNFWS0UqWw6-ykYM1-10">
          <mxGeometry width="50" height="50" relative="1" as="geometry">
            <mxPoint x="270" y="190" as="sourcePoint" />
            <mxPoint x="520" y="160" as="targetPoint" />
            <Array as="points">
              <mxPoint x="180" y="160" />
              <mxPoint x="180" y="210" />
              <mxPoint x="220" y="210" />
              <mxPoint x="290" y="210" />
              <mxPoint x="350" y="210" />
              <mxPoint x="370" y="210" />
              <mxPoint x="370" y="160" />
              <mxPoint x="430" y="160" />
            </Array>
          </mxGeometry>
        </mxCell>
        <mxCell id="Ic_sNFWS0UqWw6-ykYM1-22" value="&lt;div&gt;&lt;i&gt;&lt;b&gt;(sv1&#39;,[k &amp;lt; k&#39;- k] sv2)&lt;/b&gt;&lt;/i&gt;&lt;/div&gt;" style="text;html=1;strokeColor=none;fillColor=none;align=center;verticalAlign=middle;whiteSpace=wrap;rounded=0;" vertex="1" parent="Ic_sNFWS0UqWw6-ykYM1-9">
          <mxGeometry x="390" y="130" width="130" height="30" as="geometry" />
        </mxCell>
        <mxCell id="Ic_sNFWS0UqWw6-ykYM1-24" value="&lt;div&gt;&lt;i&gt;Re&#39;&lt;br&gt;&lt;/i&gt;&lt;/div&gt;&lt;div&gt;&lt;i&gt;V&lt;/i&gt; &#39;&lt;br&gt;&lt;/div&gt;" style="text;html=1;strokeColor=none;fillColor=none;align=center;verticalAlign=middle;whiteSpace=wrap;rounded=0;" vertex="1" parent="Ic_sNFWS0UqWw6-ykYM1-9">
          <mxGeometry x="310" y="120" width="60" height="30" as="geometry" />
        </mxCell>
        <mxCell id="Ic_sNFWS0UqWw6-ykYM1-25" value="&lt;i&gt;&lt;b&gt;sv1&lt;/b&gt;&lt;/i&gt;&#39;" style="text;html=1;strokeColor=none;fillColor=none;align=center;verticalAlign=middle;whiteSpace=wrap;rounded=0;" vertex="1" parent="Ic_sNFWS0UqWw6-ykYM1-9">
          <mxGeometry x="320" y="90" width="60" height="30" as="geometry" />
        </mxCell>
        <mxCell id="Ic_sNFWS0UqWw6-ykYM1-18" value="" style="curved=1;endArrow=classic;html=1;rounded=0;entryX=0;entryY=0.5;entryDx=0;entryDy=0;" edge="1" parent="Ic_sNFWS0UqWw6-ykYM1-9" target="Ic_sNFWS0UqWw6-ykYM1-17">
          <mxGeometry width="50" height="50" relative="1" as="geometry">
            <mxPoint x="40" y="160" as="sourcePoint" />
            <mxPoint x="270" y="50" as="targetPoint" />
            <Array as="points">
              <mxPoint x="130" y="160" />
              <mxPoint x="180" y="160" />
              <mxPoint x="180" y="120" />
              <mxPoint x="210" y="120" />
            </Array>
          </mxGeometry>
        </mxCell>
        <mxCell id="Ic_sNFWS0UqWw6-ykYM1-23" value="" style="curved=1;endArrow=classic;html=1;rounded=0;exitX=1;exitY=0.5;exitDx=0;exitDy=0;" edge="1" parent="Ic_sNFWS0UqWw6-ykYM1-9" source="Ic_sNFWS0UqWw6-ykYM1-17">
          <mxGeometry width="50" height="50" relative="1" as="geometry">
            <mxPoint x="310" y="200" as="sourcePoint" />
            <mxPoint x="520" y="160" as="targetPoint" />
            <Array as="points">
              <mxPoint x="350" y="120" />
              <mxPoint x="380" y="120" />
              <mxPoint x="380" y="160" />
              <mxPoint x="430" y="160" />
              <mxPoint x="420" y="160" />
            </Array>
          </mxGeometry>
        </mxCell>
        <mxCell id="Ic_sNFWS0UqWw6-ykYM1-42" value="&lt;h1&gt;Typing&lt;/h1&gt;&lt;p&gt;Re |-- (sv1,sv2) : a * b&amp;nbsp;&amp;nbsp;&amp;nbsp;&amp;nbsp;&amp;nbsp;&amp;nbsp;&amp;nbsp;&amp;nbsp;&amp;nbsp;&amp;nbsp; Re |-- sv1 : a &amp;nbsp; &amp;nbsp; &amp;nbsp; &amp;nbsp; &amp;nbsp; &amp;nbsp;&amp;nbsp; Re&#39; |-- sv1&#39; : a &lt;br&gt;&lt;/p&gt;&lt;p&gt;Re |-- sf : a ---&amp;gt; c&amp;nbsp;&amp;nbsp;&amp;nbsp;&amp;nbsp;&amp;nbsp;&amp;nbsp;&amp;nbsp;&amp;nbsp;&amp;nbsp;&amp;nbsp;&amp;nbsp;&amp;nbsp;&amp;nbsp;&amp;nbsp;&amp;nbsp;&amp;nbsp;&amp;nbsp;&amp;nbsp; Re |-- sv2 : b&amp;nbsp;&amp;nbsp;&amp;nbsp;&amp;nbsp;&amp;nbsp;&amp;nbsp;&amp;nbsp;&amp;nbsp;&amp;nbsp;&amp;nbsp;&amp;nbsp;&amp;nbsp; Re&#39; |-- [k &amp;lt; k&#39; - k] sv2 : b&lt;br&gt;&lt;/p&gt;" style="text;html=1;strokeColor=none;fillColor=none;spacing=5;spacingTop=-20;whiteSpace=wrap;overflow=hidden;rounded=0;" vertex="1" parent="Ic_sNFWS0UqWw6-ykYM1-9">
          <mxGeometry x="80" y="260" width="400" height="100" as="geometry" />
        </mxCell>
        <mxCell id="Ic_sNFWS0UqWw6-ykYM1-26" value="Comp - Arrow function" style="swimlane;whiteSpace=wrap;html=1;" vertex="1" parent="1">
          <mxGeometry x="160" y="800" width="560" height="280" as="geometry">
            <mxRectangle x="260" y="570" width="140" height="30" as="alternateBounds" />
          </mxGeometry>
        </mxCell>
        <mxCell id="Ic_sNFWS0UqWw6-ykYM1-27" value="&lt;b&gt;&lt;i&gt;&lt;font style=&quot;font-size: 20px;&quot;&gt;sf1&lt;/font&gt;&lt;/i&gt;&lt;/b&gt;" style="rounded=0;whiteSpace=wrap;html=1;" vertex="1" parent="Ic_sNFWS0UqWw6-ykYM1-26">
          <mxGeometry x="120" y="80" width="80" height="40" as="geometry" />
        </mxCell>
        <mxCell id="Ic_sNFWS0UqWw6-ykYM1-28" value="&lt;font style=&quot;font-size: 15px;&quot;&gt;&lt;b&gt;&lt;i&gt;[k &amp;lt; k&#39; - k]&lt;/i&gt;&lt;/b&gt;&lt;/font&gt;&lt;b&gt;&lt;i&gt;&lt;font style=&quot;font-size: 20px;&quot;&gt;sf2&lt;/font&gt;&lt;/i&gt;&lt;/b&gt;" style="rounded=0;whiteSpace=wrap;html=1;" vertex="1" parent="Ic_sNFWS0UqWw6-ykYM1-26">
          <mxGeometry x="320" y="160" width="120" height="40" as="geometry" />
        </mxCell>
        <mxCell id="Ic_sNFWS0UqWw6-ykYM1-32" value="&lt;div&gt;Re&lt;/div&gt;&lt;div&gt;V&lt;/div&gt;" style="text;html=1;strokeColor=none;fillColor=none;align=center;verticalAlign=middle;whiteSpace=wrap;rounded=0;" vertex="1" parent="Ic_sNFWS0UqWw6-ykYM1-26">
          <mxGeometry x="50" y="100" width="60" height="30" as="geometry" />
        </mxCell>
        <mxCell id="Ic_sNFWS0UqWw6-ykYM1-33" value="&lt;b&gt;&lt;i&gt;sv&lt;/i&gt;&lt;/b&gt;" style="text;html=1;strokeColor=none;fillColor=none;align=center;verticalAlign=middle;whiteSpace=wrap;rounded=0;" vertex="1" parent="Ic_sNFWS0UqWw6-ykYM1-26">
          <mxGeometry x="50" y="70" width="60" height="30" as="geometry" />
        </mxCell>
        <mxCell id="Ic_sNFWS0UqWw6-ykYM1-34" value="" style="curved=1;endArrow=classic;html=1;rounded=0;entryX=0;entryY=0.5;entryDx=0;entryDy=0;exitX=1;exitY=0.5;exitDx=0;exitDy=0;" edge="1" parent="Ic_sNFWS0UqWw6-ykYM1-26" source="Ic_sNFWS0UqWw6-ykYM1-27" target="Ic_sNFWS0UqWw6-ykYM1-28">
          <mxGeometry width="50" height="50" relative="1" as="geometry">
            <mxPoint x="150" y="170" as="sourcePoint" />
            <mxPoint x="200" y="120" as="targetPoint" />
            <Array as="points">
              <mxPoint x="220" y="100" />
              <mxPoint x="210" y="180" />
              <mxPoint x="270" y="180" />
            </Array>
          </mxGeometry>
        </mxCell>
        <mxCell id="Ic_sNFWS0UqWw6-ykYM1-36" value="&lt;div&gt;Re&#39;&lt;/div&gt;&lt;div&gt;V&#39;&lt;br&gt;&lt;/div&gt;" style="text;html=1;strokeColor=none;fillColor=none;align=center;verticalAlign=middle;whiteSpace=wrap;rounded=0;" vertex="1" parent="Ic_sNFWS0UqWw6-ykYM1-26">
          <mxGeometry x="254" y="180" width="60" height="30" as="geometry" />
        </mxCell>
        <mxCell id="Ic_sNFWS0UqWw6-ykYM1-37" value="&lt;b&gt;&lt;i&gt;sv&lt;/i&gt;&lt;/b&gt;&#39;" style="text;html=1;strokeColor=none;fillColor=none;align=center;verticalAlign=middle;whiteSpace=wrap;rounded=0;" vertex="1" parent="Ic_sNFWS0UqWw6-ykYM1-26">
          <mxGeometry x="254" y="150" width="60" height="30" as="geometry" />
        </mxCell>
        <mxCell id="Ic_sNFWS0UqWw6-ykYM1-38" value="&lt;b&gt;&lt;i&gt;sv&lt;/i&gt;&lt;/b&gt;&#39;&#39;" style="text;html=1;strokeColor=none;fillColor=none;align=center;verticalAlign=middle;whiteSpace=wrap;rounded=0;" vertex="1" parent="Ic_sNFWS0UqWw6-ykYM1-26">
          <mxGeometry x="450" y="150" width="60" height="30" as="geometry" />
        </mxCell>
        <mxCell id="Ic_sNFWS0UqWw6-ykYM1-39" value="&lt;div&gt;Re&#39;&#39;&lt;/div&gt;&lt;div&gt;V&#39;&#39;&lt;br&gt;&lt;/div&gt;" style="text;html=1;strokeColor=none;fillColor=none;align=center;verticalAlign=middle;whiteSpace=wrap;rounded=0;" vertex="1" parent="Ic_sNFWS0UqWw6-ykYM1-26">
          <mxGeometry x="450" y="180" width="60" height="30" as="geometry" />
        </mxCell>
        <mxCell id="Ic_sNFWS0UqWw6-ykYM1-40" value="&lt;p&gt;Re &amp;nbsp; |-- sf2 : b ---&amp;gt; c&amp;nbsp;&amp;nbsp;&amp;nbsp;&amp;nbsp;&amp;nbsp;&amp;nbsp;&amp;nbsp; Re&#39;&amp;nbsp; |-- [k &amp;lt; k&#39; - k] sf2 : b ---&amp;gt; c&lt;br&gt;&lt;/p&gt;&lt;div&gt;Re&#39;&#39; |-- sv&#39;&#39; : c &lt;br&gt;&lt;/div&gt;&lt;div&gt;&lt;br&gt;&lt;/div&gt;" style="text;html=1;strokeColor=none;fillColor=none;spacing=5;spacingTop=-20;whiteSpace=wrap;overflow=hidden;rounded=0;" vertex="1" parent="Ic_sNFWS0UqWw6-ykYM1-26">
          <mxGeometry x="240" y="40" width="300" height="50" as="geometry" />
        </mxCell>
        <mxCell id="Ic_sNFWS0UqWw6-ykYM1-41" value="&lt;h1&gt;Typing&lt;/h1&gt;&lt;p&gt;Re&amp;nbsp; |-- sv : a&amp;nbsp;&amp;nbsp;&amp;nbsp;&amp;nbsp;&amp;nbsp;&amp;nbsp;&amp;nbsp;&amp;nbsp;&amp;nbsp;&amp;nbsp;&amp;nbsp;&amp;nbsp;&amp;nbsp;&amp;nbsp;&amp;nbsp; Re&amp;nbsp; |-- sf1 : a ---&amp;gt; b&lt;br&gt;&lt;/p&gt;&lt;div&gt;Re&amp;nbsp; |-- sf2 : b ---&amp;gt; c &amp;nbsp; &amp;nbsp; Re&#39; |-- sv&#39; : b&amp;nbsp;&amp;nbsp;&amp;nbsp;&amp;nbsp;&amp;nbsp;&amp;nbsp;&amp;nbsp;&amp;nbsp;&amp;nbsp;&amp;nbsp; &lt;br&gt;&lt;/div&gt;" style="text;html=1;strokeColor=none;fillColor=none;spacing=5;spacingTop=-20;whiteSpace=wrap;overflow=hidden;rounded=0;" vertex="1" parent="Ic_sNFWS0UqWw6-ykYM1-26">
          <mxGeometry x="10" y="170" width="230" height="100" as="geometry" />
        </mxCell>
        <mxCell id="Ic_sNFWS0UqWw6-ykYM1-29" value="" style="endArrow=classic;html=1;rounded=0;entryX=0;entryY=0.5;entryDx=0;entryDy=0;" edge="1" parent="Ic_sNFWS0UqWw6-ykYM1-26">
          <mxGeometry width="50" height="50" relative="1" as="geometry">
            <mxPoint x="40" y="99.30999999999995" as="sourcePoint" />
            <mxPoint x="120" y="99.30999999999995" as="targetPoint" />
          </mxGeometry>
        </mxCell>
        <mxCell id="Ic_sNFWS0UqWw6-ykYM1-35" value="" style="endArrow=classic;html=1;rounded=0;exitX=1;exitY=0.5;exitDx=0;exitDy=0;" edge="1" parent="Ic_sNFWS0UqWw6-ykYM1-26">
          <mxGeometry width="50" height="50" relative="1" as="geometry">
            <mxPoint x="439.9999999999998" y="179.30999999999995" as="sourcePoint" />
            <mxPoint x="520" y="179.30999999999995" as="targetPoint" />
          </mxGeometry>
        </mxCell>
        <mxCell id="Ic_sNFWS0UqWw6-ykYM1-46" value="Rsf - Arrow function" style="swimlane;whiteSpace=wrap;html=1;" vertex="1" parent="1">
          <mxGeometry x="160" y="1110" width="560" height="280" as="geometry">
            <mxRectangle x="260" y="570" width="140" height="30" as="alternateBounds" />
          </mxGeometry>
        </mxCell>
        <mxCell id="Ic_sNFWS0UqWw6-ykYM1-48" value="&lt;b&gt;&lt;i&gt;&lt;font style=&quot;font-size: 20px;&quot;&gt;r&lt;/font&gt;&lt;/i&gt;&lt;/b&gt;" style="rounded=0;whiteSpace=wrap;html=1;" vertex="1" parent="Ic_sNFWS0UqWw6-ykYM1-46">
          <mxGeometry x="220" y="130" width="120" height="40" as="geometry" />
        </mxCell>
        <mxCell id="Ic_sNFWS0UqWw6-ykYM1-54" value="&lt;b&gt;&lt;i&gt;v&lt;/i&gt;&lt;/b&gt;" style="text;html=1;strokeColor=none;fillColor=none;align=center;verticalAlign=middle;whiteSpace=wrap;rounded=0;" vertex="1" parent="Ic_sNFWS0UqWw6-ykYM1-46">
          <mxGeometry x="350" y="120" width="60" height="30" as="geometry" />
        </mxCell>
        <mxCell id="Ic_sNFWS0UqWw6-ykYM1-55" value="&lt;div&gt;Re&lt;/div&gt;&lt;div&gt;V&lt;/div&gt;" style="text;html=1;strokeColor=none;fillColor=none;align=center;verticalAlign=middle;whiteSpace=wrap;rounded=0;" vertex="1" parent="Ic_sNFWS0UqWw6-ykYM1-46">
          <mxGeometry x="150" y="150" width="60" height="30" as="geometry" />
        </mxCell>
        <mxCell id="Ic_sNFWS0UqWw6-ykYM1-59" value="" style="endArrow=classic;html=1;rounded=0;exitX=1;exitY=0.5;exitDx=0;exitDy=0;" edge="1" parent="Ic_sNFWS0UqWw6-ykYM1-46" source="Ic_sNFWS0UqWw6-ykYM1-48">
          <mxGeometry width="50" height="50" relative="1" as="geometry">
            <mxPoint x="349.9999999999998" y="149.99999999999994" as="sourcePoint" />
            <mxPoint x="440" y="150" as="targetPoint" />
          </mxGeometry>
        </mxCell>
        <mxCell id="Ic_sNFWS0UqWw6-ykYM1-60" value="" style="endArrow=classic;html=1;rounded=0;entryX=0.5;entryY=0;entryDx=0;entryDy=0;exitX=0.5;exitY=1;exitDx=0;exitDy=0;" edge="1" parent="Ic_sNFWS0UqWw6-ykYM1-46" source="Ic_sNFWS0UqWw6-ykYM1-61" target="Ic_sNFWS0UqWw6-ykYM1-48">
          <mxGeometry width="50" height="50" relative="1" as="geometry">
            <mxPoint x="280" y="130" as="sourcePoint" />
            <mxPoint x="320" y="160" as="targetPoint" />
          </mxGeometry>
        </mxCell>
        <mxCell id="Ic_sNFWS0UqWw6-ykYM1-61" value="&lt;div&gt;&lt;b&gt;Re r -&amp;gt; (a,b) &lt;br&gt;&lt;/b&gt;&lt;/div&gt;&lt;div&gt;&lt;b&gt;&amp;nbsp;V&amp;nbsp; r -&amp;gt; v&lt;br&gt;&lt;/b&gt;&lt;/div&gt;" style="text;html=1;strokeColor=none;fillColor=none;align=center;verticalAlign=middle;whiteSpace=wrap;rounded=0;" vertex="1" parent="Ic_sNFWS0UqWw6-ykYM1-46">
          <mxGeometry x="240" y="50" width="80" height="39" as="geometry" />
        </mxCell>
        <mxCell id="Ic_sNFWS0UqWw6-ykYM1-62" value="" style="endArrow=classic;html=1;rounded=0;entryX=0;entryY=0.5;entryDx=0;entryDy=0;" edge="1" parent="Ic_sNFWS0UqWw6-ykYM1-46" target="Ic_sNFWS0UqWw6-ykYM1-48">
          <mxGeometry width="50" height="50" relative="1" as="geometry">
            <mxPoint x="120" y="150" as="sourcePoint" />
            <mxPoint x="220" y="189.82999999999993" as="targetPoint" />
          </mxGeometry>
        </mxCell>
        <mxCell id="Ic_sNFWS0UqWw6-ykYM1-63" value="&lt;b&gt;&lt;i&gt;sv&lt;/i&gt;&lt;/b&gt;" style="text;html=1;strokeColor=none;fillColor=none;align=center;verticalAlign=middle;whiteSpace=wrap;rounded=0;" vertex="1" parent="Ic_sNFWS0UqWw6-ykYM1-46">
          <mxGeometry x="150" y="120" width="60" height="30" as="geometry" />
        </mxCell>
        <mxCell id="Ic_sNFWS0UqWw6-ykYM1-64" value="&lt;div&gt;Re&lt;/div&gt;&lt;div&gt;[sv &amp;lt;- r]V&lt;/div&gt;" style="text;html=1;strokeColor=none;fillColor=none;align=center;verticalAlign=middle;whiteSpace=wrap;rounded=0;" vertex="1" parent="Ic_sNFWS0UqWw6-ykYM1-46">
          <mxGeometry x="350" y="150" width="60" height="30" as="geometry" />
        </mxCell>
        <mxCell id="Ic_sNFWS0UqWw6-ykYM1-65" value="&lt;div&gt;&lt;b&gt;Re r -&amp;gt; (a,b) &lt;br&gt;&lt;/b&gt;&lt;/div&gt;&lt;div&gt;&lt;b&gt;&amp;nbsp;V&amp;nbsp; r -&amp;gt; sv&lt;br&gt;&lt;/b&gt;&lt;/div&gt;" style="text;html=1;strokeColor=none;fillColor=none;align=center;verticalAlign=middle;whiteSpace=wrap;rounded=0;" vertex="1" parent="Ic_sNFWS0UqWw6-ykYM1-46">
          <mxGeometry x="240" y="210" width="80" height="39" as="geometry" />
        </mxCell>
        <mxCell id="Ic_sNFWS0UqWw6-ykYM1-67" value="" style="endArrow=classic;html=1;rounded=0;entryX=0.5;entryY=0;entryDx=0;entryDy=0;exitX=0.5;exitY=1;exitDx=0;exitDy=0;" edge="1" parent="Ic_sNFWS0UqWw6-ykYM1-46">
          <mxGeometry width="50" height="50" relative="1" as="geometry">
            <mxPoint x="279.86" y="170" as="sourcePoint" />
            <mxPoint x="279.86" y="211" as="targetPoint" />
          </mxGeometry>
        </mxCell>
        <mxCell id="Ic_sNFWS0UqWw6-ykYM1-68" value="&lt;h1&gt;Typing&lt;/h1&gt;&lt;p&gt;Re |-- sv : a&lt;br&gt;&lt;/p&gt;&lt;p&gt;Re |-- v : b&lt;br&gt;&lt;/p&gt;&lt;p&gt;Re |-- rsf[r] : a ---&amp;gt;&amp;nbsp; b&lt;br&gt;&lt;/p&gt;" style="text;html=1;strokeColor=none;fillColor=none;spacing=5;spacingTop=-20;whiteSpace=wrap;overflow=hidden;rounded=0;" vertex="1" parent="Ic_sNFWS0UqWw6-ykYM1-46">
          <mxGeometry x="10" y="150" width="190" height="120" as="geometry" />
        </mxCell>
        <mxCell id="Ic_sNFWS0UqWw6-ykYM1-70" value="Wormhole - Arrow function" style="swimlane;whiteSpace=wrap;html=1;" vertex="1" parent="1">
          <mxGeometry x="160" y="1420" width="560" height="340" as="geometry" />
        </mxCell>
        <mxCell id="Ic_sNFWS0UqWw6-ykYM1-72" value="" style="rounded=0;whiteSpace=wrap;html=1;" vertex="1" parent="Ic_sNFWS0UqWw6-ykYM1-70">
          <mxGeometry x="120" y="70" width="280" height="120" as="geometry" />
        </mxCell>
        <mxCell id="Ic_sNFWS0UqWw6-ykYM1-71" value="&lt;i&gt;&lt;b&gt;&lt;font style=&quot;font-size: 20px;&quot;&gt;sf&lt;/font&gt;&lt;/b&gt;&lt;/i&gt;" style="rounded=0;whiteSpace=wrap;html=1;" vertex="1" parent="Ic_sNFWS0UqWw6-ykYM1-70">
          <mxGeometry x="280" y="110" width="80" height="40" as="geometry" />
        </mxCell>
        <mxCell id="Ic_sNFWS0UqWw6-ykYM1-79" value="&lt;b&gt;sv&lt;/b&gt;" style="text;html=1;strokeColor=none;fillColor=none;align=center;verticalAlign=middle;whiteSpace=wrap;rounded=0;" vertex="1" parent="Ic_sNFWS0UqWw6-ykYM1-70">
          <mxGeometry x="50" y="100" width="60" height="30" as="geometry" />
        </mxCell>
        <mxCell id="Ic_sNFWS0UqWw6-ykYM1-81" value="&lt;div&gt;Re&lt;/div&gt;&lt;div&gt;V&lt;br&gt;&lt;/div&gt;" style="text;html=1;strokeColor=none;fillColor=none;align=center;verticalAlign=middle;whiteSpace=wrap;rounded=0;" vertex="1" parent="Ic_sNFWS0UqWw6-ykYM1-70">
          <mxGeometry x="50" y="130" width="60" height="30" as="geometry" />
        </mxCell>
        <mxCell id="Ic_sNFWS0UqWw6-ykYM1-82" value="&lt;div&gt;[S k &amp;lt;- a,u] [k &amp;lt;- u,a] Re&lt;/div&gt;&lt;div&gt;[S k &amp;lt;- u][k &amp;lt;- i] V&lt;br&gt;&lt;/div&gt;" style="text;html=1;strokeColor=none;fillColor=none;align=center;verticalAlign=middle;whiteSpace=wrap;rounded=0;" vertex="1" parent="Ic_sNFWS0UqWw6-ykYM1-70">
          <mxGeometry x="130" y="130" width="140" height="30" as="geometry" />
        </mxCell>
        <mxCell id="Ic_sNFWS0UqWw6-ykYM1-86" value="&lt;b&gt;[k &amp;lt; 2]sv&lt;/b&gt;" style="text;html=1;strokeColor=none;fillColor=none;align=center;verticalAlign=middle;whiteSpace=wrap;rounded=0;" vertex="1" parent="Ic_sNFWS0UqWw6-ykYM1-70">
          <mxGeometry x="170" y="100" width="60" height="30" as="geometry" />
        </mxCell>
        <mxCell id="Ic_sNFWS0UqWw6-ykYM1-88" value="&lt;b&gt;sv&lt;/b&gt;&#39;" style="text;html=1;strokeColor=none;fillColor=none;align=center;verticalAlign=middle;whiteSpace=wrap;rounded=0;" vertex="1" parent="Ic_sNFWS0UqWw6-ykYM1-70">
          <mxGeometry x="430" y="100" width="60" height="30" as="geometry" />
        </mxCell>
        <mxCell id="Ic_sNFWS0UqWw6-ykYM1-89" value="&lt;div&gt;Re&#39;&lt;/div&gt;&lt;div&gt;V&#39;&lt;br&gt;&lt;/div&gt;" style="text;html=1;strokeColor=none;fillColor=none;align=center;verticalAlign=middle;whiteSpace=wrap;rounded=0;" vertex="1" parent="Ic_sNFWS0UqWw6-ykYM1-70">
          <mxGeometry x="430" y="130" width="60" height="30" as="geometry" />
        </mxCell>
        <mxCell id="Ic_sNFWS0UqWw6-ykYM1-78" value="" style="endArrow=classic;html=1;rounded=0;entryX=0;entryY=0.5;entryDx=0;entryDy=0;" edge="1" parent="Ic_sNFWS0UqWw6-ykYM1-70" target="Ic_sNFWS0UqWw6-ykYM1-71">
          <mxGeometry width="50" height="50" relative="1" as="geometry">
            <mxPoint x="40" y="130" as="sourcePoint" />
            <mxPoint x="310" y="100" as="targetPoint" />
          </mxGeometry>
        </mxCell>
        <mxCell id="Ic_sNFWS0UqWw6-ykYM1-87" value="" style="endArrow=classic;html=1;rounded=0;exitX=1;exitY=0.5;exitDx=0;exitDy=0;" edge="1" parent="Ic_sNFWS0UqWw6-ykYM1-70" source="Ic_sNFWS0UqWw6-ykYM1-71">
          <mxGeometry width="50" height="50" relative="1" as="geometry">
            <mxPoint x="260" y="170" as="sourcePoint" />
            <mxPoint x="520" y="130" as="targetPoint" />
          </mxGeometry>
        </mxCell>
        <mxCell id="Ic_sNFWS0UqWw6-ykYM1-90" value="&lt;h1&gt;Typing&lt;/h1&gt;&lt;div&gt;Re |-- sv : a&amp;nbsp;&amp;nbsp;&amp;nbsp;&amp;nbsp;&amp;nbsp;&amp;nbsp;&amp;nbsp;&amp;nbsp;&amp;nbsp;&amp;nbsp;&amp;nbsp;&amp;nbsp;&amp;nbsp;&amp;nbsp;&amp;nbsp;&amp;nbsp;&amp;nbsp;&amp;nbsp;&amp;nbsp;&amp;nbsp;&amp;nbsp;&amp;nbsp;&amp;nbsp;&amp;nbsp;&amp;nbsp;&amp;nbsp;&amp;nbsp;&amp;nbsp;&amp;nbsp;&amp;nbsp;&amp;nbsp;&amp;nbsp;&amp;nbsp;&amp;nbsp;&amp;nbsp;&amp;nbsp;&amp;nbsp;&amp;nbsp;&amp;nbsp; ([S k &amp;lt;- a,u][k &amp;lt;- u,a] Re |-- sf : a ---&amp;gt; b&lt;/div&gt;&lt;div&gt;&lt;br&gt;&lt;/div&gt;&lt;div&gt;Re |-- wormhole(i;sf) : a ---&amp;gt; b&amp;nbsp;&amp;nbsp;&amp;nbsp;&amp;nbsp;&amp;nbsp;&amp;nbsp;&amp;nbsp;&amp;nbsp;&amp;nbsp;&amp;nbsp; ([S k &amp;lt;- a,u][k &amp;lt;- u,a] Re |-- [k &amp;lt; 2] sv : a ---&amp;gt; b&lt;/div&gt;&lt;div&gt;&lt;br&gt;&lt;/div&gt;Re |-- i : c&amp;nbsp;&amp;nbsp;&amp;nbsp;&amp;nbsp;&amp;nbsp;&amp;nbsp;&amp;nbsp;&amp;nbsp;&amp;nbsp;&amp;nbsp;&amp;nbsp;&amp;nbsp;&amp;nbsp;&amp;nbsp;&amp;nbsp;&amp;nbsp;&amp;nbsp;&amp;nbsp;&amp;nbsp;&amp;nbsp;&amp;nbsp;&amp;nbsp;&amp;nbsp;&amp;nbsp;&amp;nbsp;&amp;nbsp;&amp;nbsp;&amp;nbsp;&amp;nbsp;&amp;nbsp;&amp;nbsp;&amp;nbsp;&amp;nbsp;&amp;nbsp;&amp;nbsp;&amp;nbsp;&amp;nbsp;&amp;nbsp;&amp;nbsp;&amp;nbsp;&amp;nbsp;&amp;nbsp; Re&#39; |-- sv&#39; : b" style="text;html=1;strokeColor=none;fillColor=none;spacing=5;spacingTop=-20;whiteSpace=wrap;overflow=hidden;rounded=0;" vertex="1" parent="Ic_sNFWS0UqWw6-ykYM1-70">
          <mxGeometry x="40" y="200" width="480" height="130" as="geometry" />
        </mxCell>
      </root>
    </mxGraphModel>
  </diagram>
</mxfile>
